<?xml version="1.0" encoding="UTF-8"?>
<svg id="_レイヤー_2" data-name="レイヤー 2" xmlns="http://www.w3.org/2000/svg" xmlns:xlink="http://www.w3.org/1999/xlink" viewBox="0 0 489.22 382.1">
  <defs>
    <style>
      .cls-1 {
        fill: #855b2a;
      }

      .cls-1, .cls-2, .cls-3, .cls-4, .cls-5, .cls-6, .cls-7, .cls-8, .cls-9, .cls-10, .cls-11, .cls-12, .cls-13, .cls-14, .cls-15, .cls-16, .cls-17, .cls-18, .cls-19, .cls-20, .cls-21, .cls-22, .cls-23, .cls-24, .cls-25, .cls-26, .cls-27, .cls-28, .cls-29, .cls-30, .cls-31 {
        stroke-width: 0px;
      }

      .cls-2 {
        fill: url(#_名称未設定グラデーション_2);
      }

      .cls-3 {
        fill: #896e33;
      }

      .cls-4 {
        fill: #3d8651;
      }

      .cls-5 {
        fill: #7a2220;
      }

      .cls-6 {
        fill: #611a1d;
      }

      .cls-7 {
        fill: #14381e;
      }

      .cls-8 {
        fill: url(#_名称未設定グラデーション_10);
      }

      .cls-9 {
        fill: #83be95;
      }

      .cls-10 {
        fill: url(#_名称未設定グラデーション_4);
      }

      .cls-11 {
        fill: url(#_名称未設定グラデーション_11);
      }

      .cls-12 {
        fill: #98a232;
      }

      .cls-13 {
        fill: #3d4c1b;
      }

      .cls-14 {
        fill: #5f6e22;
      }

      .cls-15 {
        fill: #756b2c;
      }

      .cls-16 {
        fill: #256f45;
      }

      .cls-17 {
        fill: url(#_名称未設定グラデーション_3);
      }

      .cls-18 {
        fill: #285f3b;
      }

      .cls-19 {
        fill: #923328;
      }

      .cls-20 {
        fill: #4f5f20;
      }

      .cls-21 {
        fill: url(#_名称未設定グラデーション_6);
      }

      .cls-22 {
        fill: #838f2d;
      }

      .cls-23 {
        fill: url(#_名称未設定グラデーション_8);
      }

      .cls-24 {
        fill: #f2edea;
      }

      .cls-25 {
        fill: #965834;
      }

      .cls-26 {
        fill: url(#_名称未設定グラデーション_7);
      }

      .cls-27 {
        fill: #5a9e6f;
      }

      .cls-28 {
        fill: #313c15;
      }

      .cls-29 {
        fill: #1c482a;
      }

      .cls-30 {
        fill: url(#_名称未設定グラデーション_9);
      }

      .cls-31 {
        fill: #708029;
      }
    </style>
    <linearGradient id="_名称未設定グラデーション_2" data-name="名称未設定グラデーション 2" x1="461.77" y1="206.23" x2="419.6" y2="221.91" gradientUnits="userSpaceOnUse">
      <stop offset="0" stop-color="#418850"/>
      <stop offset="1" stop-color="#205130"/>
    </linearGradient>
    <linearGradient id="_名称未設定グラデーション_3" data-name="名称未設定グラデーション 3" x1="112.28" y1="211.28" x2="167.82" y2="233.94" gradientUnits="userSpaceOnUse">
      <stop offset="0" stop-color="#5e8c76"/>
      <stop offset="1" stop-color="#353b45"/>
    </linearGradient>
    <linearGradient id="_名称未設定グラデーション_4" data-name="名称未設定グラデーション 4" x1="175.39" y1="19.95" x2="176.76" y2="39.9" gradientUnits="userSpaceOnUse">
      <stop offset="0" stop-color="#397e4d"/>
      <stop offset="1" stop-color="#265b35"/>
    </linearGradient>
    <linearGradient id="_名称未設定グラデーション_6" data-name="名称未設定グラデーション 6" x1="237.5" y1="241.66" x2="224.77" y2="247.5" gradientUnits="userSpaceOnUse">
      <stop offset="0" stop-color="#945334"/>
      <stop offset="1" stop-color="#823c28"/>
    </linearGradient>
    <linearGradient id="_名称未設定グラデーション_7" data-name="名称未設定グラデーション 7" x1="414.74" y1="111.35" x2="401.82" y2="146.54" gradientUnits="userSpaceOnUse">
      <stop offset="0" stop-color="#83902e"/>
      <stop offset="1" stop-color="#5a6d24"/>
    </linearGradient>
    <linearGradient id="_名称未設定グラデーション_8" data-name="名称未設定グラデーション 8" x1="323.87" y1="143.51" x2="344.48" y2="153.72" gradientUnits="userSpaceOnUse">
      <stop offset="0" stop-color="#546822"/>
      <stop offset="1" stop-color="#2f3c15"/>
    </linearGradient>
    <linearGradient id="_名称未設定グラデーション_9" data-name="名称未設定グラデーション 9" x1="312.13" y1="163.68" x2="328.49" y2="165.8" gradientUnits="userSpaceOnUse">
      <stop offset="0" stop-color="#4b5d20"/>
      <stop offset="1" stop-color="#2a3513"/>
    </linearGradient>
    <linearGradient id="_名称未設定グラデーション_11" data-name="名称未設定グラデーション 11" x1="249.96" y1="107" x2="262.77" y2="114.8" gradientUnits="userSpaceOnUse">
      <stop offset="0" stop-color="#606e25"/>
      <stop offset="1" stop-color="#3c4a19"/>
    </linearGradient>
    <linearGradient id="_名称未設定グラデーション_10" data-name="名称未設定グラデーション 10" x1="147.29" y1="122.12" x2="65.69" y2="137.22" gradientUnits="userSpaceOnUse">
      <stop offset="0" stop-color="#333f16"/>
      <stop offset="1" stop-color="#566721"/>
    </linearGradient>
  </defs>
  <g id="_レイヤー_1-2" data-name="レイヤー 1">
    <g>
      <path class="cls-24" d="M135.06,330.48c-2.97,2.03-5.74,4.41-8.25,7-4.67-.74-41.34,8.26-30,13.5,5.66,2.61,109.87,7.25,124.48,7.5,34.34.58,68.92-.46,103.23-2,16.86-.76,33.67-1.53,50.49-3,4.36-.38,31.01-1.66,31.99-4.75,2.56-8.05-32.02-13.59-37.74-13.25-1.6-1.5-3.39-2.85-5.25-4,.29-1.07-1.44-1.71-.75-2,1.7-.71,32.11,1.66,36.74,2,4.17.3,8.34.62,12.5,1,15.92,1.46,53.53,5.67,66.99,11.5,2.23.97,8.92,4.9,9.5,7.25,3.26,13.34-30.11,19.39-38.99,21.25-8.45,1.76-17.19,3.42-25.75,4.5-36.45,4.59-106.07,4.27-146.23,4.5-22.24.12-44.49.94-66.74.5-11.56-.82-23.17-.76-34.74-1-46.13-.97-92.51-.63-137.98-9.5-8.88-1.73-40.33-6.64-38.49-19.75.59-4.2,7.94-7.4,11.5-8.75,13.96-5.29,47.52-9.27,63.49-11,5.98-.65,12-1.53,18-2,4.93-.39,41.97-3.15,42.99-1.25.05.1-1.42.07-1,1.75Z"/>
      <g>
        <path class="cls-24" d="M195.05.04c19.82.5,36.21,5.45,52.74,16.5,8,5.34,27.5,24.39,31.99,25.5,5.48.18,18.52-1.06,19.5-1,.46.03.04,1.47.5,1.5,3.57.25,8.47-.39,11.5,0,16.43,2.12,20.84,7.26,22,7.5,3.37.69,30.94-10.45,66.74,8.5,13.31,7.04,34.42,24.86,42.49,37.49,9.06,14.18,14.62,40.34,14.5,57.24,16.42,10.94,9.34,25.83,9.5,37.49.05,3.66,4.33,11.66-1.5,12.25-.12-11.06-3.44-16.25-3.5-18,8.16-24.73-10.03-29.69-10.5-31.74,9.56-62.83-59.97-117.64-119.23-100.73-14.13-13.84-36.73-9.2-54.24-6-.08-.76-.95-.95-1-1-9.63-9.88-20.9-21.37-32.74-28.5C209-3.89,161.28-1.52,129.81,24.53c-20.04-.91-40.28,8.82-51.74,25.5-15.57,4.53-18.81,8.34-26,22.5-1.1,2.17-5.46,11.66-6,13.25-2.19,6.39-2.49,10.98-3,12.75-.29,1.01.1,2.45-.5,3.5-3.84,4.07-6.65,8.72-9.5,13.5-.02.03-.12-.14-.5.5-15.23,25.71-19.05,57.59-1,82.99,3.64,5.12,7.67,9.01,12.5,13,17.25,14.24,36.1,18,57.99,19.5.05,2.29.56,4.42,1.5,6.5-1.54.3-1.32-2.27-1.75-2.5-3.08-1.66-26.24,1.12-50.24-14-4.3-2.71-11.85-8.5-15.5-12-14.01-13.42-19.18-29.08-20.5-48.24-2.12-30.97,9.21-39.8,21.5-64.99,4.03-8.26,7.82-24.12,17-35.49,3.7-4.58,22.56-20.85,27.75-24.25,6.94-4.55,17.28-9.15,25.25-11.5,7.22-2.13,14.69-3.85,22.25-4C147.56,6.11,171.72-.55,195.05.04Z"/>
        <g>
          <g>
            <path class="cls-2" d="M465,203c0,.33,0,.67,0,1-.19,14.21-7.15,29.32-18.25,38.49-3.1,2.56-14,10.29-16.25,6,.41-.45.24-1.77,0-2.5-1.41-4.26-7.42-9.35-11-12,3.25-2.17-12.33-12.85-16.75-18.5-4.94.72-10.58-2.58-14.75-1.5-5.08-3.2-11.07-5.01-16.5-7.5,31.19,1.04,59.45,13.04,83.49-13.5,2.34-2.59,4.29-5.32,6.5-8,.06,1.75,3.38,6.93,3.5,18Z"/>
            <path class="cls-7" d="M419.51,234c-3.56-2.63-18.27-10.75-22-12-2.91-2.35-6.46-6.08-9.5-8,4.17-1.08,9.81,2.22,14.75,1.5,4.41,5.65,20,16.33,16.75,18.5Z"/>
          </g>
          <g>
            <path class="cls-4" d="M397.51,222c3.73,1.25,18.44,9.37,22,12,3.58,2.65,9.58,7.74,11,12-1.93,3.2-13.12,2.86-17.25,2.5-21.79-1.91-46.84-22.6-55.24-25,6.44-2.73,29.17-.89,30-2.25.03-.06-.74-.41-.5-1.25,2.57.37,7.79,1.26,10,2Z"/>
            <path class="cls-16" d="M358.02,223.5c8.4,2.39,33.45,23.09,55.24,25,4.12.36,15.32.71,17.25-2.5.24.73.41,2.05,0,2.5-4.72,5.13-24.2,2.36-30.75.5-7.73-2.2-37.23-18.35-42.24-23.5-1.19-1.22-2.16-2.02-2-2.25,1.15-.77,1.92.09,2.5.25Z"/>
            <path class="cls-16" d="M387.51,220c-.24.84.53,1.19.5,1.25-.82,1.36-23.55-.48-30,2.25-.58-.16-1.35-1.02-2.5-.25-.16.23.81,1.03,2,2.25-13.18-5.33,15.22-7.62,30-5.5Z"/>
          </g>
        </g>
        <path class="cls-17" d="M155.05,195.5c7.4,4.55,24.96,17.36,25,26.5,0,1.12.27,2.54-.5,3.5-1.16,1.46-17.21,6.82-20.25,7.5-16.07,3.59-29.04.41-39.74,8.5-3.73.37-11.67,6.01-16-3.5-.94-2.07-1.45-4.21-1.5-6.5-.38-18.25,13.25-33.39,30.5-37.49,7.95-1.89,14.87-2.6,22.5,1.5Z"/>
        <g>
          <path class="cls-6" d="M240.04,293.99c.01.06.91.32,1,.75,1.44,6.76,1.67,14.36,2.5,21.25-21.25,10.19-26.7,17.36-18.25,40.99,3.11.35,22.58,2.09,21.75-2.25-11.79-3.37,11.35-8.81,14.25-5.25,1.87-1.74,8.3.4,9,1.5,1.74,2.75-4.19.31-7.25,3.75-.09.56,2.58,2.21,2.75,2.25,4.86,1.15,48.19-2.05,58.74-1v.5c-34.31,1.54-68.89,2.58-103.23,2-14.61-.25-118.82-4.89-124.48-7.5-11.35-5.23,25.32-14.23,30-13.5,2.51-2.59,5.28-4.97,8.25-7,5.94-4.07,11.72-8.83,18.5-11.5,7.77-3.06,14.98-4.52,22.75,0,17.42-12.03,43.09-44.89,63.74-25Z"/>
          <g>
            <path class="cls-19" d="M312.03,311.48c1.49,1.11,2.6,2.59,4.25,3.5,17.98-7.85,33.58,7.73,47.74,16.5,1.86,1.15,3.65,2.5,5.25,4,5.73-.34,40.3,5.2,37.74,13.25-.98,3.09-27.63,4.37-31.99,4.75.34-.64,4.5-1.29,2.25-2-2.44-.77-42.04-1.26-50.49-6.5-1.58-.98-10.3-10.42-12.5-13-16.33,4.89-8.34,1.4-12.5-1-6.52-3.77-21.83,2.51-45.24-28.5,1.58-3.28,5.04-7.69,8.25-9.5,17.17-9.7,34.62,9.05,47.24,18.5Z"/>
            <path class="cls-5" d="M375.02,353.48c-16.82,1.47-33.63,2.24-50.49,3v-.5l2.25-.5v-1c-13.35-4.26-40.87-3.04-51.99-5-10.52-1.85-13.08-11.37-15.75-20.75-1.07-3.76-1.84-15.57-4.5-15.25.06-3.91-.3-5.48,1-9.5.48-1.49.96-1.42,1-1.5,23.41,31,38.72,24.73,45.24,28.5,4.16,2.4-3.83,5.89,12.5,1,2.2,2.58,10.91,12.02,12.5,13,8.46,5.24,48.05,5.73,50.49,6.5,2.25.71-1.91,1.36-2.25,2Z"/>
          </g>
          <path class="cls-6" d="M324.52,355.98c-10.55-1.05-53.88,2.15-58.74,1-.17-.04-2.84-1.69-2.75-2.25,3.06-3.44,8.99-1,7.25-3.75-.7-1.1-7.12-3.24-9-1.5-2.9-3.56-26.04,1.88-14.25,5.25.84,4.34-18.64,2.6-21.75,2.25-8.45-23.64-3.01-30.8,18.25-40.99,1.54,1,3.25,1.18,5,1.5,1.93.35,3.85,1,5.75,1.5,1.78-1.74.25-5.22.25-5.5,2.66-.32,3.43,11.48,4.5,15.25,2.67,9.38,5.23,18.9,15.75,20.75,11.12,1.95,38.64.74,51.99,5v1l-2.25.5Z"/>
        </g>
        <g>
          <path class="cls-18" d="M52.07,75.02c-.89,4.69-.78,7.58-1,12-1.8-.28-.09,1.59-2,5.25-.2.38-4.84,6.3-6,6.25.51-1.77.81-6.36,3-12.75.54-1.58,4.9-11.08,6-13.25,1.29.69.14,1.79,0,2.5Z"/>
          <g>
            <path class="cls-7" d="M51.07,87.02c-.19,3.7-.66,7.26-.5,11,.2,4.88.63,7.46,2,12,1.88,6.27,8.73,17.74,12.5,23.5,1.7,2.6,2.39,2.84,2.5,3,2.73,3.94,4.32,6.29,7.5,10,5.03,5.87,9.41,11.66,16.75,15,7.58,3.45,54.45,14.44,67.49,17.5l11.75,15c-5.26,1.69-10.47,2.77-16,1.5-7.62-4.1-14.54-3.39-22.5-1.5,6.61-5.46-20.81.96-28.5,3-5.45,1.45-10.65,3.78-16,5.5-.72.23-2.28.26-3,.5,1.69-4.34,3.61-8.68,3.5-13.5,1.82-.1,3.68.09,5.5,0,11.67-.6,23.32-1,34.99-1.25-13.19-8.73-63.05-26.66-17-3.5l-9.75.75c-14.39-15.9-25.55-21.24-39.24-40.99-7.39-10.66-15.22-26.15-19-38.49-.4-1.31-.77-2.83-1.5-4,.6-1.05.21-2.49.5-3.5,1.16.05,5.8-5.87,6-6.25,1.91-3.66.2-5.53,2-5.25Z"/>
            <path class="cls-16" d="M35.07,127.51c-.16.64-3.05,3.73-.5,9.25.38.82,10.49,12.59,11.75,13.75.19.18,1.31-.18,1.5,0,8.67,7.9,23.45,17.38,23.25,26-.26-.17-3-1.4-5.5-3-.14-.09-.74-.07-3-1.5-8.61-5.43-17.23-10.91-25.75-16.5-1.36,0-5.48,7.42-3.75,9,1.84,6.15.41,7.71,5,11,.58.42,1.37.63,2,1-1.95,5.16,4.63,6.65,4.5,8.75-.17,2.75-9.6,2.87-7.5,6.75-1.24.09-2.51-.06-3.75,0-.65.49.32,1.42.75,2.5.81,2.03,1.9,3.4,2.5,5.75l-5-1.25c-18.05-25.4-14.23-57.28,1-82.99-.02,2.73.81.28,2.25,1,3.71,1.85.39,9.94.25,10.5Z"/>
            <path class="cls-7" d="M132.56,194c-17.24,4.1-30.87,19.24-30.5,37.49-21.89-1.5-40.74-5.26-57.99-19.5,2.51-2.32,8.46,4.11,17.25,7.5,3.26,1.26,12.86,3.92,16.25,4.5,1.47.25,11.53,1.63,12,1.25,2.14-14.15,12.53-19.35,14.5-28.25,7.68-2.04,35.1-8.46,28.5-3Z"/>
            <path class="cls-16" d="M44.07,106.02c3.78,12.34,11.61,27.84,19,38.49-2.46-.39-9.45-4.75-10.25-7.5-3.81.47-11.78-7.33-17.75-9.5.14-.56,3.46-8.65-.25-10.5-1.44-.72-2.27,1.73-2.25-1,.38-.64.48-.47.5-.5,2.24,1.74,6.91-7.67,11-9.5Z"/>
            <path class="cls-7" d="M44.07,106.02c-4.09,1.82-8.75,11.24-11,9.5,2.85-4.78,5.66-9.42,9.5-13.5.73,1.17,1.1,2.69,1.5,4Z"/>
            <path class="cls-18" d="M63.07,144.51c13.69,19.75,24.85,25.1,39.24,40.99l9.75-.75c-46.05-23.16,3.8-5.23,17,3.5-11.68.25-23.33.65-34.99,1.25,2.33-2.53,4.39-1.82,1-4.5-1.53-1.2-8.04-6.03-9.25-4.5-2.9-1.67-3.29-9.5-6.25,4-13.79-.7-27.13-.68-39.49-8-.63-.37-1.41-.58-2-1-.58-.97,4.78-1.13,6.75-1,1.72.11,17.78,4.24,17.25,1.25-.28-1.53-25.8-9.18-29-11.25-1.73-1.58,2.39-8.99,3.75-9,8.52,5.59,17.13,11.07,25.75,16.5-1.37,1.8,1.17,2.45,2.5,3.5.19,2.87,13.52,9.11,14,7.25.13-.49-7.03-5.61-8-6.25.2-8.61-14.58-18.09-23.25-26-.19-.18-1.31.18-1.5,0-1.26-1.16-11.37-12.93-11.75-13.75-2.55-5.51.34-8.6.5-9.25,5.97,2.17,13.94,9.97,17.75,9.5.8,2.75,7.79,7.11,10.25,7.5Z"/>
            <path class="cls-18" d="M77.56,224c-.51-1.97,1.6-1.49,2.5-2.75.78-1.09,2.52-6.93,4-10,.88-1.82,5.28-7,4-8.75,5.34-1.72,10.54-4.05,16-5.5-1.97,8.89-12.35,14.09-14.5,28.25-.47.38-10.53-1-12-1.25Z"/>
            <path class="cls-7" d="M88.56,189.5c.11,4.82-1.81,9.16-3.5,13.5-6.46,2.11-12.82,4.76-19.25,7l18.25-18.25h-14.5c.65-.38.39-1.11.75-1.25.85-.33,15.63-.85,18.25-1Z"/>
            <path class="cls-7" d="M95.06,185.01c-5.17.39-10.35-.24-15.5-.5,2.96-13.5,3.35-5.67,6.25-4,1.2-1.53,7.72,3.29,9.25,4.5Z"/>
            <g>
              <path class="cls-16" d="M79.56,184.51c5.15.26,10.33.89,15.5.5,3.39,2.67,1.33,1.97-1,4.5-1.82.09-3.68-.1-5.5,0-2.62.15-17.39.67-18.25,1-.36.14-.1.87-.75,1.25h14.5l-18.25,18.25c6.42-2.24,12.79-4.89,19.25-7,.72-.24,2.28-.27,3-.5,1.28,1.75-3.12,6.93-4,8.75-1.48,3.07-3.22,8.9-4,10-.9,1.26-3.01.78-2.5,2.75-3.39-.58-12.99-3.24-16.25-4.5-8.78-3.39-14.74-9.82-17.25-7.5-4.83-3.99-8.86-7.88-12.5-13l5,1.25c-.6-2.34-1.69-3.72-2.5-5.75,15.46-.52,16.81-3.5,3-2.5-2.1-3.88,7.33-3.99,7.5-6.75.13-2.1-6.45-3.59-4.5-8.75,12.36,7.32,25.7,7.3,39.49,8Z"/>
              <path class="cls-7" d="M66.82,191c7.63-.16-13.7,7.08-14.25,6.25-.16-.25,1-5.6,1.25-5.75.56-.33,11.26-.46,13-.5Z"/>
              <path class="cls-29" d="M37.07,192c13.81-1,12.46,1.98-3,2.5-.43-1.08-1.4-2.01-.75-2.5,1.24-.06,2.51.09,3.75,0Z"/>
            </g>
            <path class="cls-16" d="M38.07,175.51c-4.59-3.29-3.16-4.85-5-11,3.2,2.07,28.72,9.72,29,11.25.54,2.99-15.52-1.14-17.25-1.25-1.97-.13-7.33.03-6.75,1Z"/>
            <g>
              <path class="cls-7" d="M71.07,176.51c.97.64,8.12,5.76,8,6.25-.47,1.86-13.81-4.37-14-7.25,0-.1.9-.66.5-2,2.5,1.6,5.24,2.83,5.5,3Z"/>
              <path class="cls-9" d="M65.57,173.51c.4,1.34-.51,1.9-.5,2-1.33-1.05-3.87-1.7-2.5-3.5,2.26,1.43,2.86,1.41,3,1.5Z"/>
            </g>
          </g>
          <g>
            <path class="cls-16" d="M277.53,46.53c-16.54,3.02-37.01,8.39-51.99,16-1.7-3.26-4.53-5.15-7.5-7-.52-.32-1.2-.45-1.5-1,2.03-1.14,4.89-3.77,7.25-4.5,11.72-3.6,17.4,2.42,22,2,8.46-4.07,18.03-2.93,27-5,.44-.1.69-.98.75-1,.15-.04.77.8,3-.5.05.05.92.24,1,1Z"/>
            <path class="cls-7" d="M218.04,55.53c2.97,1.85,5.79,3.74,7.5,7-4.66,2.37-8.85,4.8-13,8,.1-3.56,2.59-14.87,5.5-15Z"/>
            <path class="cls-7" d="M199.55,85.02c-.56,2.02-.79,11.24-.5,13.5-3.24-3.44-2.19-7.24-3-8.25-.63-.78-1.28.46-1.5.25-3.56-3.52-8.6-17.58-21.5-28,.29-.63.67-.91.5-1.75-.62-3.03-16.22-31.65-16.5-33.49-.33-2.18.92-4.36,2.5-5.75,11.65,12.73,30.47,55.19,36.99,62.24.87.94,1.95,2.06,3,1.25Z"/>
            <path class="cls-4" d="M212.04,12.03c5.79,3.32,6.94,17.9,5.25,24,17.68-1.16,35.28-1.29,51.74,6,1.46,1.35,2.98,2.72,4.5,4-.06.02-.31.9-.75,1-8.96,2.06-18.54.93-27,5-4.6.42-10.28-5.6-22-2-2.36.72-5.21,3.36-7.25,4.5-.85.48-1.46.39-1.75,1.5-1.97.15-4.76-12.38-3.75-14.75l-.75-.75c-5.81,6.5-4.32,2.04-10.75-10.5,4.6-6.6,4.86-22.38,12.5-18Z"/>
            <path class="cls-27" d="M269.03,42.03c-16.46-7.29-34.07-7.16-51.74-6,1.69-6.1.54-20.68-5.25-24,1.15-2.99,5.59,1.92,6.5-2,19.21,5.58,36.06,18.59,50.49,31.99Z"/>
            <path class="cls-27" d="M218.54,10.03c-.91,3.92-5.35-.99-6.5,2-7.64-4.38-7.9,11.39-12.5,18-1.37-2.68-2.29-5.45-4-8-8.38-12.47-23.53-11.01-36.74-8-6.09,1.39-20.27,8.01-13,3.5,17.86-11.09,52.89-13.26,72.74-7.5Z"/>
            <g>
              <path class="cls-10" d="M276.53,45.53c-2.23,1.3-2.85.46-3,.5-1.52-1.28-3.04-2.65-4.5-4-14.43-13.4-31.28-26.42-50.49-31.99-19.84-5.76-54.88-3.59-72.74,7.5-7.27,4.51,6.91-2.11,13-3.5,13.22-3.01,28.36-4.47,36.74,8-7.86.47-30.91-4.94-35.99-.5-1.58,1.39-2.83,3.57-2.5,5.75.28,1.85,15.88,30.47,16.5,33.49.17.84-.21,1.12-.5,1.75-24.53-19.81-65.87-20.97-94.98-12.5,11.46-16.67,31.7-26.4,51.74-25.5,31.47-26.05,79.19-28.42,113.98-7.5,11.84,7.12,23.12,18.62,32.74,28.5Z"/>
              <path class="cls-9" d="M126.31,27.53c1.79-.18-1.36,1.95-1.5,2-5.88,2-21.75,3.19-34.24,11.75,9.65-8.83,23.15-12,35.74-13.75Z"/>
            </g>
            <g>
              <path class="cls-18" d="M195.55,22.03c1.71,2.55,2.63,5.32,4,8,6.43,12.54,4.94,17,10.75,10.5l.75.75c-1.01,2.37,1.78,14.89,3.75,14.75.29-1.11.9-1.02,1.75-1.5.3.55.98.68,1.5,1-2.91.13-5.39,11.44-5.5,15-.87.67-1.47,1.54-2,2-2.91,2.48-4.68,3.84-7,7-.98,1.33-3.53,3.81-4,5.5-1.05.81-2.13-.31-3-1.25-6.53-7.05-25.34-49.51-36.99-62.24,5.08-4.44,28.14.97,35.99.5Z"/>
              <path class="cls-7" d="M196.8,38.53c2.22,2.13,11.65,19.56,11.75,20.75.1,1.31-3.04,7.64-3.25,10.25-4.19-9.79-7.22-20.42-8.5-30.99Z"/>
            </g>
          </g>
        </g>
        <g>
          <path class="cls-25" d="M260.04,183.51c-3.59,27.59,3.8,54.72,4.5,82.24q11.75-13.75,23.5-27.5v-1.75c2.01,1.04,2.73-.8,5-3,10.1-9.76,20.06-19.26,28.5-30.5.49-.65,1.8-1.22,2-1.5,4.9-1.05.61,4.68,0,7-.13.51-.63,1.33-1,1.75l.75.75c14.07-6.06,28.87-9.95,43.74-13.5.03.23.46.96.5,1,.93,2.2-5.89,4.72,3,6.5-.44.32-1.2.74-1,1.5-3.11-.71-3.37-3.81-5.25-4-19.98,6.38-34.39,7.66-50.99,21.5-17.3,14.42-5.25,5.95,4.5,5.5,11.58-.54-6.49,5.15-17,6.5-13.44,17.56-43.87,48.39-45.24,67.99-1.3,4.01-.94,5.59-1,9.5,0,.28,1.53,3.76-.25,5.5-1.9-.5-3.82-1.15-5.75-1.5-.66-24.54,3.12-30.02,16-49.74.46-1.46-1.49-1.4-1.5-2-.43-17.97-1.81-35.77-5-53.49v-20l.5-6.5c.19-.85,1.48-3.55,1.5-3.75v1.5Z"/>
          <path class="cls-12" d="M461.5,185.01c-2.21,2.68-4.16,5.41-6.5,8,7.96-12.87-5.22,3.5-15.25,2.5-1.88-.39-5.78-9.26-5.75-11.5,4.4-1.67-.23-.72-2-.5-6-8.76,1.43-7.8,1.5-9.75.01-.28-2.34-4.77-2.5-5-.11-.16-1.55.77-3-1.5,2.26-6.63-14.06-16.79-14.5-18-.13-.36.08-1.16,0-1.75,11.2-1.79,22.98-1.99,33.24,3.5,1.97-16.4-18.15-41.27-35.49-39.99,2.09-6.08-3.75-9.48-9-8.5-2.41.45-11.04,9.02-14.75,8,4.67-8.11,5.18-14.01-1.75-21-1.68.13-1.08,1.59-1.25,2-2.17.07-1.01-2.42-1.5-3.75-2.29-6.28-12-14.89-18.25-17.25-10.73-4.06-17.26-1.43-18.5-1.5-.58-.03-4.78-2.15-5-2-.18.12-1.32,3.88-1.5,4-1.17.79-23.13,6.75-26.75,9l-2.75-8c-4.7,1.69-9.47,3.06-14.25,4.5,8.48-24.64.54-13.22-6.25-10-10.74,5.09-14.43-3.35-21.5-.5-2.73,1.1-7.68,10.74-9.75,13.25-.74.89-1.35.5-2,1.25-2.13,2.46-4.43,4.79-6.25,7.5l-2-9c-15.28,3.56-8.88,1.19-11.5-.5-.32-.21-5.24-1.34-7-3l-6,18.5c-2.59-2.59-3.62-17.43-5.5-18-2.99-.9-8.66,4.38-7.75-3.5.53-.46,1.13-1.33,2-2,4.15-3.2,8.34-5.63,13-8,14.98-7.61,35.45-12.98,51.99-16,17.51-3.2,40.11-7.84,54.24,6,59.27-16.91,128.79,37.9,119.23,100.73.46,2.05,18.65,7.02,10.5,31.74Z"/>
          <path class="cls-21" d="M264.53,150.01c-.46,2.78-1.1,4.57-.5,7.5.13.63-.16,1.18.5,2-.66.62-1.22,1.24-2,1.75-.43.97-1.04,11.08-1.5,13.75-.11.64.1,1.36,0,2-.28,1.69-.8,3.24-1,5-.02.2-1.31,2.9-1.5,3.75l-.5,6.5v20c3.18,17.72,4.57,35.52,5,53.49.01.6,1.96.54,1.5,2-12.88,19.72-16.66,25.2-16,49.74-1.75-.32-3.46-.5-5-1.5-.83-6.89-1.06-14.48-2.5-21.25-.09-.43-.99-.69-1-.75-1.2-5.38-1.84-10.59-4-15.75-10.45-24.96-36.69-36.55-56.49-52.74.77-.96.5-2.38.5-3.5q17.37,12,34.74,24-6.37-12.25-12.75-24.5c5.44,3.77,1.17-3.52,2-6.75,1.24-4.8,2.94,7.4,6,8.75,6.92,15.81,18.97,30.69,29.25,44.49,1.46-13.46-27.64-63.63-28.25-67.24-.57-3.41.82-7.02,4.75-5.25,3.45,1.55,19.5,31.49,22.25,37.24,1.34.22.03-2.42,0-2.75,3.41,2.7,1.86-10.48,1.5-12.75-1.06-6.71-6.2-19.81-8-27.5-.9-3.85-2.14-18.74-4.5-18.25,0-.1-.4-1.57-.5-2l1.5-.5c5.59,22.34,13.72,48.52,13.5,70.74,8.55,6.86,6.37,46.36,8.75,46.24,12.58-21.13,4.82-45.98,3.75-68.74-.18-3.74-.22-19.7,0-22.25.03-.3.29.35,1-5.5.04-.31,1.98-3.4.5-6,2.29-.97,2.69-11.57,3.5-16.5.19-1.18.3-2.37.5-3.5.81-4.66,1.67-9.33,2.5-14l2.5.5Z"/>
          <path class="cls-26" d="M413.51,147.51c-4.84.77-9.89,2.35-14.5,4-.7-1.06-2.14-1.12-3.25-1-3.78.42-37.02,14.37-46.74,13,1.62-2.44,2.39-2.84,2.5-3,17.95-4.67,33.66-14.64,49.99-23,4.2-2.15,8.76-3.8,13-6,7.49-3.89,13.55-7.06,6.75-4.5-1.65-3.57-12.11,1.43-16.75,3.5-2.63,1.17-15.75,7.63-13.5,9.5-1.83.77-11.25,6.08-12.25,6l-.75-.75c7.41-10.52,18.78-18.55,24.25-24.25,8.25-8.59-10.61,6.07-19.25,14.5-.55-.21-1.07-.78-1.75-.5-1.15.47-16.32,14.24-18.25,17-.03-.03-.64.12-.5-.75.14-.88,9.98-11.98,11.5-13.75,5.1-5.94,10.51-11.37,15.5-17.5,1.67-2.05,8.35-6.12,5.25-9.5-1.13-1.24-8.17,7.44-8.75,8-6.14,5.97-8.95,8.92-14.5,15.5-4.91,5.82-10.03,11.85-14.5,18l-1.5-2c1.45-1.87,3.6-5.57,5.5-8,5.95-7.58,25.24-29.31,26.5-31.49,3.71,1.02,12.34-7.55,14.75-8,5.24-.98,11.09,2.41,9,8.5,17.35-1.28,37.46,23.6,35.49,39.99-10.27-5.49-22.04-5.29-33.24-3.5Z"/>
          <path class="cls-31" d="M384.52,91.52c.17-.41-.43-1.87,1.25-2,6.93,6.99,6.42,12.89,1.75,21-1.26,2.19-20.55,23.91-26.5,31.49-2.6-2.89-1.79-11.01.5-14.25l-.75-.25q-4.12,8.12-8.25,16.25c-1.91-2.76-1.57,5.78-1.5,7.75l-1.5,1c-.31-5.5-1.77-11.22-2-16.75-.23-5.56.15-11.18,0-16.75-.3-11.23,1.78-18.21-7-29.5.46-1.81.98-11.08,1.5-11.75,11.48.9,19.57,16.56,22.25,26.75-.05-4.53-.37-9.31-1.25-13.75-1.81-9.12-7.43-15.79-.25-13.25.82.29,5.26,4.15,6.25,5.25,11.67,12.97,3.88,27.13,9,23,2.79-2.26,5.12-10.93,6.5-14.25Z"/>
          <path class="cls-23" d="M347.52,119.02c.15,5.57-.23,11.18,0,16.75.23,5.53,1.69,11.24,2,16.75.05.83.84,2.34.5,4.75-6.05,8.74-10.98,18.19-16.5,27.25-6.69-16.72-9.61-34.98-9.5-52.99,1.85-2.2,6.6-7.9,7.5-10l16-2.5Z"/>
          <path class="cls-30" d="M333.52,184.51c-.58.95-.91,2.06-1.5,3-2.46,3.93-4.88,7.67-7.5,11.5-1.2-7.38-2.82-11.98-6-18.5.56-.08,1.71.24,2-.25,1.01-1.7-10.45-28.5-12.5-32.24,2.58-2.46,14.44-14.63,16-16.5-.11,18.01,2.8,36.27,9.5,52.99Z"/>
          <path class="cls-13" d="M386.51,180.01l-6.75,1c-2.49-3.3-3.6.32-6.25-2-.12-.11.15-1.09,0-1.25-1.36-1.52-27.46,17.25-30.75,19.25-8.68,5.3-15.47,7.53-16.25,8,.59-3.38,3.55-7.92,5.5-11.5,11.86-2.32,22.07-9.35,32.24-15.5l-1.25-2.5c5.05-1.27,10.28-1.85,15.25-3.5,7.11,4.47,9.95-2.46,8.25,8Z"/>
          <path class="cls-13" d="M399.01,151.51c-13.3,4.78-41.51,21.71-58.74,28l-.75-.75c3.41-4.94,6.18-10.25,9.5-15.25,9.72,1.38,42.96-12.58,46.74-13,1.11-.12,2.55-.06,3.25,1Z"/>
          <path class="cls-13" d="M391.01,140.01c3.34-1.42,10.41-4.22,10.5-2.5-16.33,8.35-32.04,18.32-49.99,23,1.77-2.59,3.89-6.29,5.5-8.5,4.47-6.14,9.59-12.18,14.5-18-.26,1.41.98.93,1,1,.14.48-1.75.82,1.5,2.5-1.52,1.77-11.36,12.86-11.5,13.75-.14.87.47.72.5.75,1.76,1.53,10.47-3.24,7.5-3.75,5.18-3.21,8.73-9.08,12.5-12.75,8.64-8.43,27.5-23.09,19.25-14.5-5.47,5.69-16.83,13.73-24.25,24.25l.75.75c1,.08,10.42-5.22,12.25-6Z"/>
          <path class="cls-28" d="M332.02,193.5c1.1-2.03,1.67-4.55,3-6.5.61-.9.89-2.41,1.75-3,8.8-2.54,17.36-6.26,26.25-8.5l1.25,2.5c-10.17,6.15-20.38,13.18-32.24,15.5Z"/>
          <path class="cls-28" d="M361.02,142.01c-1.9,2.43-4.05,6.13-5.5,8-.41.54-2.49,2.25-3.75,5-1.47.11-.74-3.1-.75-3.5-.07-1.97-.41-10.5,1.5-7.75q4.12-8.12,8.25-16.25l.75.25c-2.29,3.24-3.1,11.36-.5,14.25Z"/>
          <path class="cls-3" d="M335.02,187c-1.33,1.95-1.9,4.47-3,6.5-1.95,3.58-4.91,8.12-5.5,11.5-1.42.85-1.87,2.41-3,3.5.61-2.32,4.9-8.05,0-7,.14-.19.85-2.28,1-2.5,2.62-3.83,5.04-7.57,7.5-11.5l3-.5Z"/>
          <path class="cls-1" d="M371.02,199c-.04,1.98,1.61,1.33,2,1.5.08.04.65.87,1.5,1-.54,2.12-2.55,2.44-4,3.5-8.89-1.78-2.07-4.29-3-6.5.57.58,2.38.78,3.5.5Z"/>
          <g>
            <path class="cls-28" d="M386.51,180.01c-.56,3.44-1.84,6.73-2,10.25-.59,1.26-1.48,1.91-2.5,2.75-.48.4-10.39,5.84-11,6-1.12.28-2.93.08-3.5-.5-.04-.04-.47-.77-.5-1-.14-.97,5.37-16.06,6.5-18.5,2.65,2.32,3.76-1.3,6.25,2l6.75-1Z"/>
            <path class="cls-31" d="M382.02,193c2.05,1.48.84,1.73-1.5,3.5-1.99,1.51-5.1,3.23-7.5,4-.39-.17-2.04.48-2-1.5.61-.15,10.51-5.6,11-6Z"/>
            <g>
              <path class="cls-31" d="M413.51,147.51c.08.59-.13,1.39,0,1.75.44,1.21,16.75,11.37,14.5,18,1.45,2.27,2.89,1.34,3,1.5.16.23,2.51,4.72,2.5,5-.07,1.95-7.5.99-1.5,9.75-10.34,1.31-20.55,4.43-30.75,6.5-5.44-3.29,16.38-10.66,10.5-11.5-1.39-.2-25.84,12.52-23.5,14,15.25-2.62,31.08-2.94,45.74-8.5-.03,2.24,3.87,11.11,5.75,11.5,10.02,1,23.21-15.37,15.25-2.5-24.04,26.53-52.3,14.54-83.49,13.5-.63-.08-1.43.13-2,0-.2-.76.56-1.18,1-1.5,1.45-1.06,3.46-1.38,4-3.5,8.63,1.29,48.46-4.19,50.24-6,2.85-2.88-12.43,1.49-20,2-8,.54-16.27-.21-24.25-1,2.34-1.77,3.55-2.02,1.5-3.5,1.02-.84,1.91-1.49,2.5-2.75.16-3.51,1.44-6.81,2-10.25,1.7-10.46-1.14-3.53-8.25-8-4.96,1.65-10.2,2.23-15.25,3.5-8.88,2.24-17.45,5.96-26.25,8.5-.86.59-1.14,2.1-1.75,3l-3,.5c.59-.94.92-2.05,1.5-3,5.51-9.06,10.45-18.5,16.5-27.25.34-2.41-.45-3.92-.5-4.75l1.5-1c.01.4-.72,3.6.75,3.5,1.26-2.75,3.33-4.46,3.75-5l1.5,2c-1.61,2.21-3.73,5.91-5.5,8.5-.11.16-.88.56-2.5,3-3.32,4.99-6.09,10.31-9.5,15.25l.75.75c17.23-6.28,45.44-23.22,58.74-28,4.6-1.65,9.66-3.23,14.5-4Z"/>
              <path class="cls-13" d="M374.52,201.5c-.85-.13-1.42-.96-1.5-1,2.4-.77,5.51-2.49,7.5-4,7.97.79,16.24,1.54,24.25,1,7.57-.51,22.84-4.88,20-2-1.78,1.81-41.61,7.29-50.24,6Z"/>
              <path class="cls-28" d="M432.01,183.51c1.77-.22,6.4-1.17,2,.5-14.66,5.56-30.49,5.88-45.74,8.5-2.35-1.48,22.11-14.2,23.5-14,5.89.84-15.94,8.21-10.5,11.5,10.19-2.07,20.41-5.19,30.75-6.5Z"/>
              <path class="cls-13" d="M404.26,169.51l.75.75c-2.56,2.83-4.55,6.07-7,9-.34.41.54.96.5,1-2.09,2.45-9.87,6.41-12.75,9.25,1-1.77,4.14-12.39,4.75-12.75,2.14-1.27,7.99,2.3,13.75-7.25Z"/>
              <path class="cls-14" d="M409.26,161.51c1.9-.51-2.43,6.01-3,6-1.52.15,2.64-5.9,3-6Z"/>
            </g>
          </g>
          <path class="cls-25" d="M296.53,207.5c-.17,8.76-3.62,17.48-3.5,26-2.27,2.2-2.99,4.04-5,3l6-31.99c.39.5,2.34,2.89,2.5,3Z"/>
          <path class="cls-20" d="M194.55,90.52c.22.21.87-1.03,1.5-.25.81,1.01-.24,4.81,3,8.25.99,7.82,4.33,3.4,4.75,3.5.39.09.64,1.82.75,2-7.43,1.9-4.82,10.86-6.25,16.5-1.34-.08-3.16-17.21-10.5-19-13.05-3.17,1.6,6.51,6.75,18.25l-.75.25c-1.45-2.46-13.72-16.09-14.75-16.5,1.1-1.79,1.41-3.54,2-5.5.49-1.63,3.06-12.38,3.75-12.5l8,17.5,1.75-12.5Z"/>
          <path class="cls-28" d="M212.04,126.01c1.3,4,2.72,8,4,12,2.55,7.96,5,16.01,7.5,24,1.03,3.28,2.9,7.11,3,7.5.1.43.5,1.9.5,2,.02,2.82-.53,1.59-1,2-1,.87-2.7,1.29-4,1.5-12.15-10.35-25.15-26.68-27.5-42.24,5.46-5.19,13.74,17.65,20.25,24.75-.32-4.74-12.93-33.56-11.75-35.24,2.41-3.43,1.92,8.22,9,3.75Z"/>
          <path class="cls-25" d="M204.54,168.01c-.89,21.18-3.19,35.64,5.5,55.49-3.05-1.35-4.76-13.55-6-8.75-.83,3.23,3.44,10.52-2,6.75-4.28-2.96-22.71-22.22-28.5-28,.41-.18,1.53-2.08,4-2,5.52,5.99,10.7,12.53,16.5,18.25,6.75,6.66-1.02-4.23-3.5-9-3.17-6.11-5.57-12.55-8.5-18.75-.14-.3.14-1.2,0-1.5,4.07-.89-.28-3.67,2-3.5,1.33,3.82,12.51,20.25,15.25,26.5q-.62-13.5-1.25-27c.65-1.98.27-4.02.5-6,.2-1.68.32-4.13,1.5-5.5,1.71,1.29,2.81,1.9,4.5,3Z"/>
          <path class="cls-25" d="M238.04,230c-1.69-19.18-10.11-37.25-12-56.49.47-.41,1.02.82,1-2,2.36-.49,3.59,14.39,4.5,18.25,1.8,7.68,6.94,20.78,8,27.5.36,2.27,1.91,15.45-1.5,12.75Z"/>
          <path class="cls-24" d="M252.54,183.01c.92.35,2,.59,3,.5,1.48,2.6-.46,5.69-.5,6-1.27-1.83-2.48-5.38-3.5-7,.4.05.59.34,1,.5Z"/>
          <path class="cls-14" d="M414.51,131.51c-4.24,2.2-8.8,3.85-13,6-.08-1.73-7.15,1.08-10.5,2.5-2.25-1.87,10.87-8.33,13.5-9.5,5.72,5.19,6.92-.76,10,1Z"/>
          <path class="cls-13" d="M383.02,135.51c-3.76,3.67-7.32,9.54-12.5,12.75,2.97.51-5.74,5.28-7.5,3.75,1.92-2.75,17.09-16.53,18.25-17,.68-.28,1.2.29,1.75.5Z"/>
          <path class="cls-31" d="M414.51,131.51c-3.08-1.76-4.28,4.19-10-1,4.64-2.07,15.09-7.07,16.75-3.5,6.8-2.56.75.61-6.75,4.5Z"/>
          <path class="cls-13" d="M389.51,120.02c-4.99,6.13-10.4,11.55-15.5,17.5-3.25-1.68-1.36-2.02-1.5-2.5,3.25-2.87,12.52-13.88,15.5-15,.31-.11,1.01.07,1.5,0Z"/>
          <path class="cls-14" d="M388.01,120.02c-2.98,1.12-12.24,12.12-15.5,15-.02-.07-1.26.41-1-1,5.55-6.58,8.36-9.53,14.5-15.5,1.81-.15,2.93.2,2,1.5Z"/>
          <path class="cls-14" d="M389.51,120.02c-.49.07-1.19-.11-1.5,0,.93-1.3-.19-1.65-2-1.5.58-.56,7.61-9.24,8.75-8,3.1,3.38-3.58,7.44-5.25,9.5Z"/>
          <path class="cls-13" d="M347.52,119.02l-16,2.5c.29-.67,4.12-13.81,2-14,2.63-4.91,5.62-12.63,7-18,8.78,11.28,6.7,18.27,7,29.5Z"/>
          <g>
            <path class="cls-28" d="M318.53,180.51c3.18,6.51,4.8,11.12,6,18.5-.15.21-.86,2.31-1,2.5-.2.28-1.51.85-2,1.5-6.55.33-19.74,8.13-25,4.5-.16-.11-2.11-2.5-2.5-3-1.54-1.96-1.41-2.86-1.5-3,6.09-14.71,7.49-30.84,12.25-45.99,3.84,7.94,10.13,17.58,13.75,25Z"/>
            <path class="cls-13" d="M318.53,180.51c-3.62-7.42-9.9-17.06-13.75-25-4.76,15.16-6.15,31.28-12.25,45.99-6-10.06-7.38-21.39-7-32.99,1-4.2,18.4-16.58,22.5-20.5,2.05,3.75,13.51,30.54,12.5,32.24-.29.49-1.44.17-2,.25Z"/>
          </g>
          <path class="cls-24" d="M182.05,182.01c2.93,6.19,5.32,12.64,8.5,18.75,2.48,4.76,10.25,15.66,3.5,9-5.8-5.72-10.98-12.26-16.5-18.25-.97-1.3-.15-1.3,0-2,.12-.54,3.26-7.33,4.5-7.5Z"/>
          <g>
            <path class="cls-13" d="M331.52,121.52c-.9,2.1-5.65,7.79-7.5,10-1.56,1.86-13.42,14.04-16,16.5-4.1,3.92-21.5,16.29-22.5,20.5-7.84,6.05-15.96,11.89-25.5,15v-1.5c.2-1.75.72-3.31,1-5,22.4-14.71,60.18-46.5,72.49-69.49,2.12.19-1.71,13.33-2,14Z"/>
            <path class="cls-31" d="M384.52,91.52c-1.38,3.31-3.7,11.99-6.5,14.25-5.12,4.14,2.67-10.02-9-23-.99-1.1-5.43-4.96-6.25-5.25-7.18-2.54-1.56,4.13.25,13.25.88,4.44,1.2,9.21,1.25,13.75-2.68-10.19-10.76-25.85-22.25-26.75-.52.67-1.04,9.94-1.5,11.75-1.38,5.36-4.37,13.09-7,18-12.31,22.98-50.09,54.78-72.49,69.49.1-.64-.11-1.36,0-2,13.67-9.99,27.51-21.82,38.24-33.99-6.43,4.98-31.05,15-34.74,18.5-.66-.82-.37-1.36-.5-2,10.26-7.28,21.65-12.85,31.99-20,7.21-4.98,12.89-8.57,18.5-15.75l-.75-.75c-8.58,3.66-17.25,7.14-25.75,11-4.21,1.91-18.46,7.5-21,10-1.55-1.11-.79-.92-.5-2.5,13.81-7.12,28.16-14.16,40.99-23,1.77-1.22,20.4-14.83,17.75-16.5-24.97,7.9-37.7,16.5-8.75-7.75l-2.5-5.75c-6.42-5.08-1.82-1.8-1-6.5,3.62-2.25,25.58-8.2,26.75-9,.18-.12,1.32-3.88,1.5-4,.22-.15,4.42,1.97,5,2,1.23.07,7.77-2.56,18.5,1.5,6.25,2.36,15.96,10.97,18.25,17.25.49,1.33-.67,3.82,1.5,3.75Z"/>
            <path class="cls-31" d="M210.54,72.52c-.91,7.88,4.76,2.6,7.75,3.5,1.88.57,2.91,15.4,5.5,18l6-18.5c1.76,1.66,6.68,2.79,7,3,2.62,1.69-3.78,4.06,11.5.5l2,9c1.82-2.71,4.12-5.04,6.25-7.5,3.4,4.41,1.02,4-.5,7-.62,1.23-4.09,8.48-4.5,8.75-1.15.76-5.77-3.4-4.5,7.5,1.01,8.69,11.21,30.83,16,39.74-.22,1.18-.3,2.36-.5,3.5-5.62-8.29-9.4-17.65-14-26.5-1.6-3.07-10.86-23.06-12-23.75-.79-.48-7.87-.83-8.5,1-.92,2.69,13.23,32.04,15.5,36.74,4.76,9.91,8.77,20.45,16,29-.2,1.13-.31,2.32-.5,3.5-4.59-6.65-9.46-13.25-13.5-20.25-5.06-8.78-15.5-33.29-17-34.49-.42-.34-1.27-.46-1.5,0,2.89,6.77,5.06,16.36,7.5,22.75-1.27,3.43.52,7.31-1.5,7-.04-.08-.22,0-1-1.5-3.73-7.18-4.78-10.21-7.5-17.5-2.71-7.28-4.95-14.76-7-22.25-.66-.95-8.7-.94-6,5.25-2.78-8.82-4.69-17.84-8-26.5,2.32-3.16,4.09-4.52,7-7Z"/>
            <path class="cls-31" d="M313.03,80.02c-.82,4.7-5.42,1.41,1,6.5-3.83.57-14.02,4.63-17.5,6.5-3.96,2.13-5.22,3.8-5.5,4-7.34,5.36-12.1,10.59-16.5,18.5-1.03,1.85-1.7,3.56-2.5,5.5-.41.99-.66,2.04-1,3-1.83,5.19-3.52,10.07-4.5,15.5-.29,1.58-1.05,1.39.5,2.5-.51.51-1.04.71-1.5,1.25-.3,2.25-.63,4.51-1,6.75l-2.5-.5c.15-.84.35-1.64.5-2.5.2-1.14.28-2.32.5-3.5,1.28-7,3.15-14.02,5.5-20.75-.2-1.44-.4-2.79-.5-4.25,1.14.08,1.99-1.15,2.5-2,1.7-2.83,3.5-7.46,5-10.5.68-1.37,5.43-8.71,5.5-9.25-1.98-5.45-1.89-12.24-2.5-15.25,6.21-.46,11.73-3.26,17.5-5,4.78-1.44,9.55-2.81,14.25-4.5l2.75,8Z"/>
            <path class="cls-22" d="M296.03,76.52c-5.76,1.74-11.29,4.54-17.5,5-.39-1.93-1.37-4.03-1.75-6-1.88,2.37-11.81,11.05-12.75,11.5-1.49.72-7.27,2.6-8,.5,1.52-3,3.9-2.59.5-7,.65-.75,1.26-.35,2-1.25,2.06-2.51,7.02-12.15,9.75-13.25,7.07-2.85,10.76,5.59,21.5.5,6.79-3.22,14.73-14.64,6.25,10Z"/>
            <path class="cls-28" d="M259.04,167.01c-.81,4.93-1.21,15.53-3.5,16.5-1,.09-2.08-.15-3-.5,4.45-.25-1.81-5.72-4-9.25-2.29-3.68-17.13-28.77-17.5-30.5-.18-.87.15-2.25,1-2.75.78,1.51.96,1.42,1,1.5.87,1.6,9.03,17.78,11,15.25.14-.18-.42-4.29-.5-4.5-.34-.94-4.16-5.08-9-17.75-2.44-6.39-4.6-15.98-7.5-22.75.23-.46,1.08-.34,1.5,0,1.5,1.21,11.93,25.72,17,34.49,4.04,7,8.91,13.6,13.5,20.25Z"/>
            <path class="cls-28" d="M248.54,120.52c4.6,8.84,8.38,18.21,14,26.5-.15.86-.35,1.66-.5,2.5-.83,4.66-1.69,9.33-2.5,14-7.23-8.54-11.23-19.09-16-29,8.08-1.42.92-14.51,5-14Z"/>
            <path class="cls-13" d="M288.03,132.01c2.21,2.12,8.62,3.19,8,5.5-10.34,7.15-21.73,12.72-31.99,20-.61-2.93.04-4.72.5-7.5.37-2.24.69-4.5,1-6.75.46-.54.98-.74,1.5-1.25,2.53-2.5,16.79-8.09,21-10Z"/>
            <path class="cls-13" d="M261.04,175.01c.46-2.67,1.07-12.78,1.5-13.75.78-.51,1.34-1.13,2-1.75,3.7-3.49,28.31-13.52,34.74-18.5-10.74,12.17-24.58,24-38.24,33.99Z"/>
            <path class="cls-13" d="M251.54,182.51c1.02,1.62,2.23,5.17,3.5,7-.71,5.85-.97,5.2-1,5.5-7.61-6.66-14.15-14.18-20.5-22,3.94.07,6.28,4.72,7.25,5,4.9,1.41-.95-3.96-3.25-8.25-2.84-5.28-10.08-20.58-12.5-26.25-.05-.12-.05-1.42-.5-2.5,1.13-.23,1.91.41,2.5,1.25,1.31,1.87,10.66,19.74,14.5,26,3.02,4.92,6.96,9.43,10,14.25Z"/>
            <path class="cls-13" d="M233.54,173.01c-2.22-2.73-4.85-5.14-6.25-8.5-.49.11.62,3.98.75,4.5l-1.5.5c-.1-.39-1.97-4.22-3-7.5,10.34,4.51-1.78-13.22,1.5-18.5,2.42,5.67,9.66,20.96,12.5,26.25,2.3,4.29,8.15,9.66,3.25,8.25-.97-.28-3.31-4.93-7.25-5Z"/>
            <path class="cls-14" d="M314.03,86.52l2.5,5.75c-28.95,24.25-16.22,15.65,8.75,7.75,2.65,1.67-15.97,15.28-17.75,16.5.06-.3-.66-1-.75-1-2.51.04-29.24,7.4-35.74,8.5.34-.96.59-2.01,1-3,6.58-2.53,25.96-11.99,18-10.5-2-6.53-.57-6.99,2.5-11.5,1.62-2.38,5.35-5.62,4-6,3.48-1.87,13.66-5.93,17.5-6.5Z"/>
            <path class="cls-13" d="M307.53,116.52c-12.84,8.84-27.18,15.88-40.99,23,.98-5.43,2.67-10.31,4.5-15.5,6.5-1.1,33.23-8.46,35.74-8.5.09,0,.81.7.75,1Z"/>
            <path class="cls-20" d="M296.03,137.51c.62-2.31-5.79-3.38-8-5.5,8.5-3.86,17.16-7.34,25.75-11l.75.75c-5.61,7.18-11.28,10.76-18.5,15.75Z"/>
            <path class="cls-31" d="M211.54,106.02c.11.35,1.93,3.52,3,6.75.84,6.37,3.23,11.84,5.5,17.75l-4,7.5c-1.28-3.99-2.7-8-4-12-1.84-5.65-5.17-18.07-7.5-22-.11-.18-.36-1.91-.75-2-.42-.1-3.76,4.32-4.75-3.5-.29-2.26-.06-11.48.5-13.5.47-1.69,3.02-4.17,4-5.5,3.31,8.65,5.21,17.67,8,26.5Z"/>
            <path class="cls-11" d="M264.03,87.02c.02,10.23,3.62,26.03,4,31.49.1,1.46.3,2.81.5,4.25-2.35,6.73-4.22,13.75-5.5,20.75-4.78-8.91-14.99-31.05-16-39.74-1.27-10.9,3.34-6.74,4.5-7.5.41-.27,3.88-7.52,4.5-8.75.73,2.1,6.51.22,8-.5Z"/>
            <path class="cls-20" d="M248.54,120.52c-4.08-.51,3.08,12.58-5,14-2.26-4.71-16.41-34.05-15.5-36.74.63-1.83,7.71-1.48,8.5-1,1.14.69,10.4,20.68,12,23.75Z"/>
            <path class="cls-13" d="M232.04,140.51c-.85.5-1.18,1.88-1,2.75.37,1.72,15.21,26.81,17.5,30.5,2.19,3.53,8.45,9,4,9.25-.41-.16-.6-.45-1-.5-3.04-4.82-6.98-9.33-10-14.25-3.84-6.25-13.19-24.13-14.5-26-.59-.84-1.37-1.48-2.5-1.25-1.05-2.51-2.51-4.96-3.5-7.5,2.45-2.69,3.33,5.28,5,1.25.71-1.73-6.28-10.1-1.5-11.75,2.71,7.29,3.77,10.32,7.5,17.5Z"/>
            <path class="cls-14" d="M224.54,123.02c-4.78,1.65,2.21,10.02,1.5,11.75-1.67,4.03-2.55-3.94-5-1.25-.37-.95-.64-2.05-1-3-2.26-5.91-4.66-11.38-5.5-17.75-1.07-3.23-2.89-6.4-3-6.75-2.7-6.19,5.34-6.2,6-5.25,2.05,7.49,4.29,14.97,7,22.25Z"/>
            <path class="cls-13" d="M233.04,142.01c2.02.32.23-3.57,1.5-7,4.84,12.67,8.66,16.8,9,17.75.08.21.64,4.32.5,4.5-1.97,2.53-10.12-13.64-11-15.25Z"/>
            <path class="cls-14" d="M278.53,81.52c.61,3.01.52,9.8,2.5,15.25-.07.53-4.82,7.88-5.5,9.25-9.77-27.43-7.04.45-5,10.5-.51.85-1.36,2.08-2.5,2-.38-5.47-3.98-21.27-4-31.49.93-.45,10.87-9.13,12.75-11.5.38,1.97,1.36,4.07,1.75,6Z"/>
            <path class="cls-13" d="M291.03,97.02l1.5,2c-3.07,4.51-4.5,4.97-2.5,11.5-.93.17-9.28,2.32-9.75,2.5-1.06.41-4.16,4.13-5.75,2.5,4.39-7.91,9.16-13.14,16.5-18.5Z"/>
            <path class="cls-13" d="M275.53,106.02c-1.5,3.04-3.3,7.67-5,10.5-2.04-10.05-4.77-37.93,5-10.5Z"/>
            <path class="cls-13" d="M272.03,121.02c.8-1.94,1.47-3.65,2.5-5.5,1.59,1.63,4.68-2.09,5.75-2.5.47-.18,8.82-2.33,9.75-2.5,7.97-1.49-11.41,7.97-18,10.5Z"/>
            <path class="cls-14" d="M292.53,99.02l-1.5-2c.27-.2,1.54-1.87,5.5-4,1.35.38-2.38,3.62-4,6Z"/>
            <path class="cls-20" d="M221.04,133.51c.99,2.54,2.45,4.99,3.5,7.5.45,1.08.45,2.38.5,2.5-3.28,5.27,8.84,23.01-1.5,18.5-2.5-7.99-4.95-16.03-7.5-24l4-7.5c.36.95.63,2.05,1,3Z"/>
          </g>
          <path class="cls-24" d="M196.05,179.51c.76-1.08,1.19-.52,2-3q.62,13.5,1.25,27c-2.74-6.25-13.92-22.67-15.25-26.5-.28-.81-.34-1.67-.5-2.5l9.75,8.5c2.12-1.39,2.62-3.32,2.75-3.5Z"/>
          <g>
            <path class="cls-13" d="M204.54,104.02c2.33,3.93,5.66,16.35,7.5,22-7.07,4.47-6.59-7.18-9-3.75-1.18,1.68,11.43,30.5,11.75,35.24-6.51-7.1-14.79-29.93-20.25-24.75,2.35,15.56,15.35,31.89,27.5,42.24-.16.03-1.17,1.06-3.25.5-1.16-.31-1.66-1.43-1.75-1.5-1.83-1.34-11.65-10.93-13.5-13.25-3.81-4.78-6.51-10.59-9.75-15.75-6.87-3.5-12.61-7.92-19.75-10.5.01-8.58-1.4-14.84-1.5-20.75,0-.43,1.98-5.14,0-8.25,2.24-1.38,3.86-3.03,6.5-2,1.03.4,13.3,14.04,14.75,16.5l.75-.25c-5.15-11.74-19.8-21.42-6.75-18.25,7.34,1.78,9.15,18.92,10.5,19,1.43-5.64-1.19-14.6,6.25-16.5Z"/>
            <path class="cls-28" d="M185.05,125.01c1.94,1.63,4.63,2.71,6.5,4.5l4.25,14c-2.46-1.03-17.85-9.22-17.75-10.75,5.02-2.27,2.37-6.91,7-7.75Z"/>
            <path class="cls-20" d="M185.05,121.52c2.16,1.33,6.81,4.77,8.5,5.5l-2,2.5c-1.87-1.79-4.56-2.87-6.5-4.5-11.36-9.52-13.66-11.9,0-3.5Z"/>
            <path class="cls-28" d="M193.55,127.01c-1.69-.73-6.34-4.17-8.5-5.5,1.86-.06,13.65,2.09,14.25,2.5,2.49,1.73,1.06,5.96-5.75,3Z"/>
          </g>
          <g>
            <path class="cls-12" d="M173.05,62.53c12.89,10.41,17.93,24.47,21.5,28l-1.75,12.5-8-17.5c-.69.11-3.26,10.87-3.75,12.5-5.91-8.53-16.21-25.17-26.75-27.5-4.44-.98-16.16-.36-19.25,2.5-2.78-1.54-3.3.55-3.5.5-12.78-3.34-22.53-13.76-24.25-.5-4.45-1.77-15.16-9.72-18-6.5-.37,0-.13-1.01-.5-1-14.86.54-22.94,9.29-31.99,6.5-4.16,1.63-2.64,4.45-4.75,3,.14-.71,1.29-1.81,0-2.5,7.18-14.15,10.42-17.96,26-22.5,29.11-8.47,70.46-7.31,94.98,12.5Z"/>
            <path class="cls-22" d="M131.56,73.52c.17,2.74-.63,5.25-.5,8-4.53-1.45-26.09-5.11-28.75-3-.44.35.5.59.25,2-3.26-1.29-6.58-2.48-9.75-4-2.3,1.85-2.35,5.64-2.75,6.5-1.45,3.13-12.24-2.53-15.75,1.5l-7-3c-2.76,7.26,4.08,10.13,4.25,10.75.91,3.23-13.08,2.35-21,5.75-.16-3.74.31-7.3.5-11,.22-4.42.11-7.3,1-12,2.11,1.45.59-1.37,4.75-3,9.05,2.79,17.13-5.96,31.99-6.5.37-.01.13,1,.5,1,2.83-3.22,13.54,4.73,18,6.5,1.72-13.26,11.46-2.84,24.25.5Z"/>
            <path class="cls-22" d="M181.05,98.02c-.59,1.96-.9,3.71-2,5.5-2.64-1.03-4.26.62-6.5,2-.35.22-.99-.08-1.25-.5l-.75,1.25c-.34,2.21.52,3.58.5,4.25-1.9.33-.62-7.42-1.5-9.75-.28-.74-10.12-11.26-10.75-11.75-1.21-.95-4.64-1.88-7.25-3.5-1.59-.99-5.07-4.2-7.25-5.5-.48.39-.26,5.87-.25,7-2.54-2.03-7.35-13.09-9-14,3.09-2.86,14.81-3.48,19.25-2.5,10.53,2.33,20.83,18.97,26.75,27.5Z"/>
            <path class="cls-31" d="M135.06,73.02c1.64.91,6.46,11.96,9,14,.04,8.54.06,16.98-1.5,25.5-.09-.16-1.59-.82-2.5-2.75.44-.32.67-.71.5-1.25-.61-1.99-1.13-7.43-3-11.75-1.14-2.63-3.34-4.66-4.5-7.25-1.25-2.79-1.84-4.48-2-8-.13-2.75.67-5.26.5-8,.2.05.72-2.04,3.5-.5Z"/>
            <path class="cls-8" d="M67.57,114.02c5.8,1.67,11.71,3,17.25,5.5,23.29,3.43,46.29,11.14,69.24,13,2.78,4.04,7.05,11.3,10,16-.83.71-5.34.21-6.75,0-21.35-3.13-42.73-8.14-63.99-12-.49-.09-.01-1.39-.5-1.5-6.36,1.2-11.93-1.46-18.25-1-1.86-.28-3.11.08-4.5,0-3.38-.18-3.88-1.39-5-.5-3.77-5.75-10.61-17.23-12.5-23.5,5.11.87,10.04,2.57,15,4Z"/>
            <path class="cls-13" d="M70.07,134.01c6.19,3.81,56.01,13.76,58.74,12.5.45-.21.2-1.06.25-1.5,12.31,2.35,24.61,4.55,36.99,6.5.63,1.02,1.38,1.98,2,3,2.36,3.89,4.84,7.45,7,11.5-26.62-2.1-53.49-8.1-78.99-16-8.43-6.57,13.3,3.94,16.5-.25-4.85-3.88-13.05-4.06-19.75-5.75-3.27-.83-6.76-2.57-10-3.5-.2-.06-1.87,2-3-1-.65,2.28-1.31-.25-3.5-1-1.72-.59-3.47-.4-3.75-.5-4.75-1.62-4.53-3.13-5-1.5-.11-.16-.8-.4-2.5-3,1.12-.89,1.62.32,5,.5Z"/>
            <path class="cls-31" d="M90.06,83.02c3.36,3.43,17.97,12.17,18.75,13,.87.92.44.7.5,2-4.74-2.79-24.98-7.33-30.99-6-9.57,2.11,9.08,8.95,17,11.5,2.9,3.25-11.56-1.24-16.5-1-.39.02-.11.96-.5,1-8.84.8-8.06,1.45-8.5,1.5-4.5.47-14.25-1.24-13.75.75,13.8,5.09,28.37,7.54,42.49,11.25,4.5,1.18,8.99,2.34,13.5,3.5-1.35,1.18-5.57.39-7.75,0-8.81-1.56-23.09-6.07-28-7-.8-.15-.97,1.6-3.5-1-.62,2.56-4.95-1.27-5.25,1.5-4.96-1.43-9.89-3.13-15-4-1.36-4.54-1.8-7.12-2-12,7.92-3.4,21.91-2.52,21-5.75-.17-.61-7.01-3.49-4.25-10.75l7,3c3.51-4.03,14.29,1.63,15.75-1.5Z"/>
            <path class="cls-13" d="M80.06,148.01c5.8,2.82,11.83,5.61,18,7.5-.13,3.2,1.61,1.3,2.75,3.5,20.97,7.43,41.92,14.13,63.99,17.5,4.68,1.73,9.53,9.06,12.75,13-.15.7-.97.7,0,2-2.47-.08-3.59,1.82-4,2-.71.31-1.94.32-2.5.5l-11.75-15c-13.03-3.06-59.91-14.05-67.49-17.5-7.33-3.34-11.72-9.13-16.75-15,2.19-1.18,3.07.56,5,1.5Z"/>
            <path class="cls-20" d="M72.57,138.01c-1.34,2.27,3.81,2.77,7.75,7,5.13,2.02,10.49,3.37,15.75,5,25.5,7.9,52.37,13.9,78.99,16,.45.84,1.72,1.79,2,3-9.39-.78-18.75-2.15-28-4-17.18-3.43-34.91-8.14-51.74-13-5.22-1.51-16.59-7.1-17.25-4-1.93-.94-2.81-2.68-5-1.5-3.18-3.71-4.77-6.06-7.5-10,.47-1.63.25-.12,5,1.5Z"/>
            <path class="cls-14" d="M102.56,80.52c19,7.52,23.83,15.57,35.99,30.99-1.97-.6.03,2.32-1.25,2.5-1.51.21-24.6-9.76-29-9.5v1c3.49,2.37,27.93,11.33,29,12.5.36.39-.08,4.13-.25,4.25-2.25,1.59-43.74-13.33-53.74-11.75-6.3,1,14.04,4.01,15.5,5,.72.49-.11.93-.25,1.5-14.13-3.71-28.7-6.15-42.49-11.25-.5-1.99,9.25-.28,13.75-.75.44-.05-.34-.7,8.5-1.5.39-.04.11-.98.5-1,4.94-.24,19.4,4.25,16.5,1-7.92-2.55-26.57-9.38-17-11.5,6.02-1.33,26.25,3.21,30.99,6-.06-1.3.37-1.08-.5-2-.78-.83-15.38-9.57-18.75-13,.4-.86.45-4.65,2.75-6.5,3.16,1.52,6.49,2.71,9.75,4Z"/>
            <path class="cls-31" d="M131.06,81.52c.16,3.51.75,5.21,2,8-1.18.37-2.17,7.33-2,8.25.14.75,8.58,12.12,9.5,10.75.17.54-.06.93-.5,1.25.91,1.93,2.41,2.59,2.5,2.75.15.28.2.48.5,1,2.08,3.55,4.52,6.73,7,10,1.06,1.4,1.93,3.05,3.5,4,1.48,4.16,4.73,7.35,7,11,2.28,3.66,2.87,3.79,3,4,2.06,3.28,3.9,6.73,6,10-.37.71-.61,1.73-1.5,2-.62-1.02-1.37-1.98-2-3-.64-1.04-1.36-1.99-2-3-2.95-4.7-7.22-11.96-10-16-.58-.85-.96-.94-1-1-4.72-6.83-9.35-13.47-14.5-20-12.16-15.43-17-23.47-35.99-30.99.25-1.41-.69-1.65-.25-2,2.65-2.11,24.22,1.55,28.75,3Z"/>
            <path class="cls-14" d="M171.05,110.52c-.13,3.87,1.41,4.73-2.5,5.5-.75-3.97-1.91-8.03-2.75-12-1.1,2.95-.67,5.97-.75,9-1.83-1.47-3.33-3.87-6-3.5-.57-5.36-.07-11.06-2-16.25q-1.75,17.12-3.5,34.24c-1.57-.95-2.43-2.6-3.5-4,.31,0,.99-1.17,1-1.25.16-.92-.09-15.32,0-18.75.15-6-.2-12,.5-18,2.61,1.62,6.04,2.55,7.25,3.5.63.49,10.47,11,10.75,11.75.88,2.32-.4,10.08,1.5,9.75Z"/>
            <path class="cls-14" d="M151.55,85.52c-.7,5.99-.35,11.99-.5,18l-8,10c-.3-.52-.35-.72-.5-1,1.56-8.52,1.54-16.96,1.5-25.5,0-1.13-.23-6.61.25-7,2.18,1.3,5.66,4.51,7.25,5.5Z"/>
            <path class="cls-20" d="M172.55,105.52c1.98,3.1,0,7.82,0,8.25.1,5.91,1.51,12.16,1.5,20.75,0,7.5-.76,15.04-1.5,22.5-.94-1.5-2.04-2.99-3-4.5,1.44-2.78,1.37-20.35,1-24.75-.17-2.06-1.49-9.07-2-11.75,3.91-.77,2.37-1.63,2.5-5.5.02-.67-.84-2.04-.5-4.25l.75-1.25c.25.42.9.72,1.25.5Z"/>
            <path class="cls-13" d="M140.55,108.52c-.92,1.37-9.36-10-9.5-10.75-.17-.92.82-7.88,2-8.25,1.16,2.59,3.36,4.62,4.5,7.25,1.87,4.32,2.39,9.76,3,11.75Z"/>
            <path class="cls-14" d="M112.06,120.52c13.69,3.54,27.18,7.9,40.99,11,.04.06.42.15,1,1-22.95-1.85-45.95-9.57-69.24-13-5.54-2.5-11.45-3.83-17.25-5.5.3-2.77,4.63,1.06,5.25-1.5,2.52,2.6,2.7.85,3.5,1,4.9.93,19.19,5.44,28,7,2.18.39,6.4,1.18,7.75,0Z"/>
            <path class="cls-14" d="M164.05,148.51c.64,1.01,1.36,1.96,2,3-12.38-1.95-24.68-4.15-36.99-6.5-16.41-3.13-39.89-8.83-54.49-11,6.31-.46,11.89,2.2,18.25,1,.49.11.01,1.41.5,1.5,21.26,3.86,42.64,8.86,63.99,12,1.41.21,5.92.71,6.75,0Z"/>
            <path class="cls-13" d="M74.57,134.01c14.6,2.17,38.08,7.87,54.49,11-.05.44.2,1.29-.25,1.5-2.73,1.27-52.55-8.69-58.74-12.5,1.39.08,2.64-.28,4.5,0Z"/>
            <path class="cls-13" d="M96.06,150.01c-5.26-1.63-10.62-2.98-15.75-5-3.94-4.23-9.09-4.73-7.75-7,.28.1,2.03-.09,3.75.5,2.19.75,2.85,3.28,3.5,1,1.13,3,2.8.94,3,1,3.24.93,6.73,2.67,10,3.5,6.69,1.69,14.89,1.87,19.75,5.75-3.2,4.19-24.93-6.32-16.5.25Z"/>
            <path class="cls-15" d="M186.05,152.01c-.26,4.88-2.04,9.66-2.5,14.5-.18,1.83-.49,3.15-.5,3.5-.05,1.88.17,2.75.5,4.5.16.83.22,1.69.5,2.5-2.28-.17,2.07,2.61-2,3.5-1.78-3.79-3.5-7.59-5-11.5-.28-1.21-1.55-2.16-2-3-2.16-4.05-4.64-7.61-7-11.5.89-.27,1.13-1.29,1.5-2,.96,1.5,2.06,3,3,4.5,3.06,4.91,5.96,9.93,8.75,15q2.12-10,4.25-20h.5Z"/>
            <path class="cls-13" d="M138.56,111.52c5.15,6.53,9.78,13.17,14.5,20-13.81-3.1-27.3-7.46-40.99-11-4.5-1.16-9-2.32-13.5-3.5.14-.57.97-1.01.25-1.5-1.46-.99-21.8-4-15.5-5,10-1.58,51.49,13.34,53.74,11.75.17-.12.61-3.86.25-4.25-1.06-1.17-25.5-10.13-29-12.5v-1c4.39-.26,27.48,9.71,29,9.5,1.28-.18-.72-3.1,1.25-2.5Z"/>
            <path class="cls-28" d="M149.05,165.01c9.24,1.85,18.6,3.22,28,4,1.5,3.91,3.22,7.71,5,11.5.14.3-.14,1.2,0,1.5-1.24.17-4.38,6.96-4.5,7.5-3.22-3.94-8.06-11.27-12.75-13-22.07-3.37-43.02-10.07-63.99-17.5-1.14-2.2-2.88-.3-2.75-3.5,5.58,1.71,44.65,10.28,48.74,10.5,1.49.08,2.53.27,2.25-1Z"/>
            <path class="cls-13" d="M149.05,165.01c.28,1.27-.76,1.08-2.25,1-4.1-.22-43.16-8.79-48.74-10.5-6.17-1.89-12.19-4.68-18-7.5.66-3.1,12.02,2.49,17.25,4,16.83,4.86,34.56,9.56,51.74,13Z"/>
            <path class="cls-28" d="M217.04,174.01c-3.37-.39-9.28-3.91-12.5-6-1.69-1.1-2.79-1.71-4.5-3-3.58-2.7-6.74-6.41-10-9.5.45.09,2.48-1.11,2.5-1.25.12-.88-11.36-12.72-12.25-12.75-.12,0-1.75,1.62-1.75,1.75-.01.58,6.94,6.75,7,8.75q-2.12,10-4.25,20c-2.78-5.07-5.68-10.09-8.75-15,.74-7.46,1.49-15,1.5-22.5,7.13,2.58,12.87,7,19.75,10.5,3.24,5.16,5.93,10.97,9.75,15.75,1.85,2.32,11.66,11.91,13.5,13.25Z"/>
            <path class="cls-28" d="M190.05,155.51c3.25,3.09,6.42,6.8,10,9.5-1.18,1.37-1.3,3.82-1.5,5.5l-15-4c.46-4.84,2.24-9.61,2.5-14.5,1.35,1.11,2.74,2.3,4,3.5Z"/>
            <path class="cls-13" d="M198.55,170.51c-.23,1.98.15,4.02-.5,6-.81,2.47-1.24,1.92-2,3-3,4.05-7.41-10.44-13-9.5,0-.35.32-1.67.5-3.5l15,4Z"/>
            <path class="cls-13" d="M168.55,116.02c.51,2.68,1.83,9.69,2,11.75.37,4.39.44,21.97-1,24.75-2.1-3.27-3.94-6.72-6-10,1.97-9.7,1.24-19.7,1.5-29.5.08-3.03-.35-6.05.75-9,.84,3.97,2,8.03,2.75,12Z"/>
            <path class="cls-13" d="M159.05,109.52c1.03,9.58,3.08,19.32,1.5,29-2.27-3.65-5.52-6.83-7-11q1.75-17.12,3.5-34.24c1.93,5.18,1.43,10.89,2,16.25Z"/>
            <path class="cls-14" d="M165.05,113.02c-.26,9.8.47,19.8-1.5,29.5-.13-.21-.72-.34-3-4,1.58-9.68-.47-19.41-1.5-29,2.67-.37,4.17,2.03,6,3.5Z"/>
            <path class="cls-13" d="M151.05,103.52c-.09,3.43.16,17.82,0,18.75-.01.08-.69,1.26-1,1.25-2.48-3.27-4.92-6.45-7-10l8-10Z"/>
            <path class="cls-13" d="M196.05,179.51c-.13.18-.63,2.11-2.75,3.5l-9.75-8.5c-.33-1.75-.55-2.62-.5-4.5,5.59-.94,9.99,13.55,13,9.5Z"/>
          </g>
          <path class="cls-13" d="M190.05,155.51c-1.26-1.2-2.65-2.39-4-3.5h-.5c-.05-2-7.01-8.17-7-8.75,0-.13,1.63-1.75,1.75-1.75.88.03,12.37,11.87,12.25,12.75-.02.14-2.05,1.34-2.5,1.25Z"/>
        </g>
      </g>
    </g>
  </g>
</svg>